<svg width="36" height="36" viewBox="0 0 36 36" fill="none" xmlns="http://www.w3.org/2000/svg">
<path d="M18.0106 3.24204C22.8227 3.24204 23.3926 3.26314 25.2851 3.34753C27.044 3.42489 27.9937 3.72026 28.6269 3.9664C29.4641 4.2899 30.0692 4.68373 30.6953 5.30963C31.3285 5.94257 31.7155 6.54034 32.0461 7.37722C32.2924 8.01016 32.5878 8.9666 32.6652 10.7177C32.7497 12.6165 32.7708 13.1862 32.7708 17.9895C32.7708 22.7927 32.7497 23.3694 32.6652 25.2612C32.5878 27.0193 32.2924 27.9687 32.0461 28.6017C31.7225 29.4386 31.3285 30.0434 30.7024 30.6693C30.0692 31.3022 29.4712 31.689 28.634 32.0195C28.0008 32.2657 27.044 32.561 25.2922 32.6384C23.3926 32.7228 22.8227 32.7439 18.0176 32.7439C13.2124 32.7439 12.6355 32.7228 10.743 32.6384C8.98417 32.561 8.0344 32.2657 7.40121 32.0195C6.564 31.696 5.95896 31.3022 5.33281 30.6763C4.69963 30.0434 4.31268 29.4456 3.98202 28.6087C3.73578 27.9758 3.4403 27.0193 3.36291 25.2682C3.27848 23.3694 3.25738 22.7998 3.25738 17.9965C3.25738 13.1932 3.27848 12.6165 3.36291 10.7248C3.4403 8.9666 3.73578 8.01719 3.98202 7.38426C4.30565 6.54737 4.69963 5.94257 5.32578 5.31666C5.95896 4.68373 6.55697 4.29693 7.39418 3.9664C8.02736 3.72026 8.98417 3.42489 10.736 3.34753C12.6285 3.26314 13.1984 3.24204 18.0106 3.24204ZM18.0106 0C13.121 0 12.5089 0.0210979 10.5882 0.105489C8.67461 0.189881 7.359 0.499316 6.21927 0.942372C5.03029 1.40652 4.02423 2.01836 3.02521 3.02403C2.01915 4.02266 1.40707 5.02833 0.94274 6.20981C0.499511 7.35612 0.189955 8.66419 0.105531 10.5771C0.0211061 12.504 0 13.1158 0 18.0035C0 22.8912 0.0211061 23.503 0.105531 25.4229C0.189955 27.3358 0.499511 28.6509 0.94274 29.7902C1.40707 30.9787 2.01915 31.9844 3.02521 32.983C4.02423 33.9816 5.03029 34.6005 6.21223 35.0576C7.359 35.5007 8.66758 35.8101 10.5812 35.8945C12.5019 35.9789 13.1139 36 18.0035 36C22.8931 36 23.5052 35.9789 25.4258 35.8945C27.3395 35.8101 28.6551 35.5007 29.7948 35.0576C30.9767 34.6005 31.9828 33.9816 32.9818 32.983C33.9808 31.9844 34.6 30.9787 35.0573 29.7972C35.5005 28.6509 35.81 27.3428 35.8945 25.43C35.9789 23.5101 36 22.8982 36 18.0106C36 13.1229 35.9789 12.511 35.8945 10.5911C35.81 8.67826 35.5005 7.36316 35.0573 6.22387C34.614 5.02833 34.002 4.02266 32.9959 3.02403C31.9969 2.0254 30.9908 1.40652 29.8089 0.949404C28.6621 0.506349 27.3535 0.196913 25.4399 0.112522C23.5122 0.0210979 22.9001 0 18.0106 0Z" fill="#C6022F"/>
<path d="M18.0108 8.75549C12.9031 8.75549 8.75928 12.8977 8.75928 18.0034C8.75928 23.1091 12.9031 27.2513 18.0108 27.2513C23.1185 27.2513 27.2623 23.1091 27.2623 18.0034C27.2623 12.8977 23.1185 8.75549 18.0108 8.75549ZM18.0108 24.0022C14.6971 24.0022 12.0096 21.3158 12.0096 18.0034C12.0096 14.691 14.6971 12.0046 18.0108 12.0046C21.3244 12.0046 24.012 14.691 24.012 18.0034C24.012 21.3158 21.3244 24.0022 18.0108 24.0022Z" fill="#C6022F"/>
<path d="M29.7882 8.38997C29.7882 9.58235 28.8212 10.549 27.6284 10.549C26.4355 10.549 25.4685 9.58235 25.4685 8.38997C25.4685 7.19759 26.4355 6.23096 27.6284 6.23096C28.8212 6.23096 29.7882 7.19759 29.7882 8.38997Z" fill="#C6022F"/>
</svg>
