<svg width="36" height="36" viewBox="0 0 36 36" fill="none" xmlns="http://www.w3.org/2000/svg">
<path d="M18 0C8.1 0 0 8.1 0 18C0 27.9 8.1 36 18 36C27.9 36 36 27.9 36 18C36 8.1 27.9914 0 18 0ZM26.2828 26.0086C25.9242 26.55 25.2914 26.7258 24.75 26.3672C20.5172 23.7586 15.2086 23.2172 8.90859 24.6586C8.27578 24.8414 7.74141 24.3914 7.55859 23.85C7.37578 23.2172 7.82578 22.6828 8.36719 22.5C15.2086 20.9672 21.15 21.6 25.8258 24.4828C26.4586 24.75 26.55 25.4672 26.2828 26.0086ZM28.4414 21.0586C27.9914 21.6914 27.1828 21.9586 26.55 21.5086C21.6914 18.5414 14.3086 17.6414 8.64141 19.4414C7.92422 19.6242 7.10859 19.2586 6.93281 18.5414C6.75 17.8242 7.11563 17.0086 7.83281 16.8328C14.4 14.85 22.5 15.8414 28.0828 19.2656C28.6172 19.5328 28.8914 20.4328 28.4414 21.0586ZM28.6172 16.0172C22.8586 12.6 13.2258 12.2344 7.73438 13.95C6.83437 14.2172 5.93437 13.6828 5.66719 12.8672C5.4 11.9672 5.93437 11.0672 6.75 10.8C13.1414 8.90859 23.6672 9.26719 30.3328 13.2328C31.1414 13.6828 31.4156 14.7656 30.9656 15.5742C30.5086 16.2 29.4328 16.4672 28.6172 16.0172Z" fill="#C6022F"/>
</svg>
