<svg width="36" height="36" viewBox="0 0 36 36" fill="none" xmlns="http://www.w3.org/2000/svg">
<g clip-path="url(#clip0_1_42)">
<path d="M35.6432 10.8C35.6432 10.8 35.2916 8.31798 34.2088 7.22814C32.8377 5.79376 31.3049 5.78673 30.6018 5.70236C25.5674 5.33673 18.0088 5.33673 18.0088 5.33673H17.9947C17.9947 5.33673 10.4361 5.33673 5.40176 5.70236C4.69863 5.78673 3.16582 5.79376 1.79473 7.22814C0.711914 8.31798 0.367383 10.8 0.367383 10.8C0.367383 10.8 0.00878906 13.711 0.00878906 16.6289V19.357C0.00878906 22.268 0.367383 25.186 0.367383 25.186C0.367383 25.186 0.718945 27.668 1.79473 28.7578C3.16582 30.1922 4.96582 30.143 5.76738 30.2977C8.65019 30.5719 18.0088 30.6563 18.0088 30.6563C18.0088 30.6563 25.5744 30.6422 30.6088 30.2836C31.3119 30.1992 32.8447 30.1922 34.2158 28.7578C35.2986 27.668 35.6502 25.186 35.6502 25.186C35.6502 25.186 36.0088 22.275 36.0088 19.357V16.6289C36.0018 13.718 35.6432 10.8 35.6432 10.8ZM14.2822 22.6688V12.5508L24.0064 17.6274L14.2822 22.6688Z" fill="#C6022F"/>
</g>
<defs>
<clipPath id="clip0_1_42">
<rect width="36" height="36" fill="white"/>
</clipPath>
</defs>
</svg>
